<svg width="88" height="60" viewBox="0 0 88 60" fill="none" xmlns="http://www.w3.org/2000/svg">
<g opacity="0.5">
<path fill-rule="evenodd" clip-rule="evenodd" d="M49.3927 3.54391C49.1434 3.80133 48.2661 5.11572 48.2661 6.74407C48.2661 7.13392 48.2731 16.4685 48.2661 16.8033C48.2526 17.5136 47.8145 18.5254 47.4535 18.8821C47.1991 19.134 45.6364 20.5417 45.4977 20.6895L46.384 20.7033C46.6724 20.4301 49.6826 17.7869 49.9976 17.4313C50.4072 16.97 51.3836 15.8014 51.3836 13.9662L51.3886 4.3008C51.3886 2.85051 52.071 2.04601 52.422 1.65764C52.783 1.25886 53.9692 0.278775 54.1795 0.057065L53.2497 0.0297852C53.0249 0.252487 49.7022 3.223 49.3927 3.54391ZM41.9396 40.122L45.6259 43.3118H48.0944C50.604 43.3118 52.8982 42.2479 54.4119 40.749C55.9265 39.2481 56.4843 37.2329 56.4843 35.3476V30.1188C56.4843 28.3615 55.3692 27.3393 55.0603 27.0327C54.891 26.8661 53.8175 25.8632 53.8175 25.8632V29.8748C53.8175 29.8748 55.0007 31.085 55.2345 31.3305C56.3281 32.4812 56.3161 34.5763 52.8541 37.9193C52.2478 38.5041 50.5178 40.122 48.1374 40.122H41.9396Z" fill="black"/>
<path fill-rule="evenodd" clip-rule="evenodd" d="M52.1927 18.6623C51.7821 19.0928 51.3881 20.1458 51.3881 21.0738V23.0539H53.4155C54.2026 23.0539 55.2431 22.3431 55.4684 21.9671C55.4819 21.9394 55.4684 20.0035 55.4684 20.0035C55.4684 20.0035 55.9886 20.7415 56.5509 21.1314C56.7622 20.867 58.6073 18.6504 60.1525 18.638C62.7322 18.6172 62.1494 21.8417 61.0954 22.8733C60.7539 23.2051 59.2302 24.59 58.759 25.0339C57.5403 26.1831 55.4544 25.633 55.4544 22.6635C55.4544 22.6635 53.2157 24.769 52.8802 25.0478C52.5427 25.3265 51.3881 26.5382 51.3881 26.5382V31.7551C51.3881 34.2569 50.5569 35.0961 49.8684 35.8485C49.6005 36.1407 46.7565 38.7109 46.3759 38.9897L45.4471 39.0105C45.4471 39.0105 47.1115 37.5116 47.445 37.1684C47.8245 36.778 48.2666 35.9854 48.2666 34.6661C48.2666 34.3318 48.2246 26.4683 48.2246 26.4683H35.2872C30.7873 26.4683 29.8254 21.5212 29.7974 20.1979C29.7904 19.8081 29.7974 15.857 29.7974 15.2439C29.7974 14.431 29.2721 13.0591 28.4334 12.636H29.7027C29.849 12.697 30.6466 13.0154 30.6466 16.0484C30.6466 16.0484 30.5925 19.5779 30.5925 19.7659C30.5925 21.3035 31.8268 23.0678 33.6103 23.0678L48.2536 23.0539C48.2671 22.6635 48.6602 21.184 49.3637 20.4018C49.7638 19.9608 52.9037 17.1143 53.2627 16.8405L54.1926 16.8301C54.0509 16.9581 52.5322 18.3077 52.1927 18.6623ZM57.0006 21.6333C57.0006 21.6333 57.8483 22.7478 58.2523 23.0682C59.8296 24.3216 60.5781 22.9755 59.5196 21.5356C59.101 20.9682 57.4787 21.1319 57.0006 21.6333Z" fill="black"/>
<path fill-rule="evenodd" clip-rule="evenodd" d="M41.2997 30.9784C41.2997 31.6787 39.041 33.5377 38.9088 33.6686C38.7456 32.9142 38.1758 32.0809 36.4924 30.4124L38.9639 27.9642C40.6197 29.6069 41.2997 29.9566 41.2997 30.9784ZM45.5858 2.91496C46.0815 3.406 47.1485 4.73824 46.5081 5.37361C45.9428 5.93408 45.0655 6.8229 45.0655 6.8229C45.0215 6.50249 44.2003 5.73122 44.2003 5.73122C44.2003 5.73122 44.2073 8.09563 44.2003 8.38826C44.1723 9.45565 43.7667 9.76019 43.7667 9.76019C43.7667 9.76019 45.758 11.7174 45.758 14.2316C45.758 15.4507 45.763 16.5722 45.763 16.8142C45.763 17.3296 45.6319 17.7283 45.2693 18.1237C45.0906 18.3201 43.2445 20.1572 42.9636 20.4077C42.4288 20.8849 41.8665 20.9647 41.4449 20.9647H34.5806C33.4996 20.9647 32.387 20.129 32.387 19.2932C32.387 19.0844 32.401 16.7716 32.401 16.7716C32.753 17.1758 33.1111 17.648 33.9763 17.6356C34.6517 17.6252 35.3618 17.0994 35.5515 16.9114C35.7483 16.7145 40.7439 11.5413 40.7439 11.5413C40.7439 11.5413 38.4041 9.39265 36.8629 8.3719C36.1108 7.87243 35.1119 8.50284 34.9612 9.15904C34.4885 11.2169 34.9612 14.304 34.9612 14.304L33.066 12.4311C32.3034 11.6737 32.3309 9.96057 33.2402 9.05984C33.3844 8.9165 34.7694 7.36552 36.5289 7.36552H39.2693C41.1079 7.36552 43.1188 9.17987 43.1188 9.17987C43.1188 9.17987 43.4142 8.85946 43.4142 8.54946C43.4142 7.616 43.3791 5.09833 43.3791 5.09833C41.9957 3.72839 41.8074 2.31431 42.4704 1.65761C43.7081 0.432011 44.1578 0 44.1578 0C44.1578 0 44.1427 1.48699 45.5858 2.91496ZM36.974 16.5766C36.2976 17.2785 36.1799 17.4541 35.547 17.83H43.2775C45.3725 17.83 44.9559 16.5414 44.5804 15.8922C43.8098 14.5599 41.3773 12.0844 41.3773 12.0844C41.3773 12.0844 37.1147 16.4283 36.974 16.5766Z" fill="black"/>
<path fill-rule="evenodd" clip-rule="evenodd" d="M28.159 23.5469H26.8902C26.8902 23.5469 28.2537 24.2889 28.2537 26.2024V32.3141C28.2537 36.2915 31.5654 39.9688 35.5891 39.9688H38.9499C40.9677 39.9688 41.6757 39.4847 42.8955 38.4123C43.3426 38.0185 43.9239 37.3722 44.1367 37.1376C44.8402 36.3579 45.5883 35.7275 45.5883 33.6796V31.6792C45.5883 29.9502 44.5779 29.2305 44.0892 28.7469C43.7762 28.4369 42.9165 27.623 42.9165 27.623V31.7204C42.9165 31.7204 43.7637 32.6142 44.1367 32.9048C45.8817 34.2698 44.4927 36.6397 42.8744 36.6397C42.551 36.6397 35.9436 36.6416 35.4935 36.653C32.7756 36.72 29.1019 34.3184 29.1019 30.2805V26.9598C29.1024 23.5469 28.159 23.5469 28.159 23.5469Z" fill="black"/>
<path fill-rule="evenodd" clip-rule="evenodd" d="M36.248 30.9893C36.248 31.6871 33.9893 33.5486 33.8581 33.6795C33.6964 32.9251 33.1251 32.0919 31.4407 30.4233L33.9122 27.9751C35.5701 29.6168 36.248 29.965 36.248 30.9893ZM10.4068 58.1698C10.0042 58.1698 6.8978 58.1648 6.45367 58.1648C5.2069 58.1648 5.30204 57.1396 5.19288 56.2632V50.644C5.19288 50.644 6.05811 50.6232 7.0385 50.6232C8.13406 50.6232 9.498 50.463 10.8249 51.207C10.8249 51.207 9.87053 48.9274 7.03149 48.9274H5.19288V47.1269C5.19288 47.1269 5.19288 45.5581 4.80633 45.0949C4.80633 45.0949 7.25131 45.1038 7.41804 45.1038C9.67876 45.1053 11.4262 45.071 13.2433 46.2704C13.2433 46.2704 12.8953 43.3068 8.52912 43.3068H0C0 43.3068 1.4806 44.5622 1.43955 47.118L1.4806 57.3573C1.4806 59.9276 2.51908 59.9985 2.51908 59.9985H10.925C12.8302 59.9985 13.4932 58.6489 13.4932 57.9178L13.5217 56.9362C13.5217 56.9352 12.9169 58.1698 10.4068 58.1698ZM32.7836 57.3043V50.1426C32.7836 47.3635 30.4913 46.625 28.7844 46.625C26.5242 46.625 25.8477 48.4954 25.5593 49.1377C25.0551 47.3943 23.2936 46.6047 21.8486 46.6047C19.1187 46.6047 18.4262 49.1794 18.4262 49.1794C18.4262 49.1794 18.3616 46.693 16.1695 46.693L14.0214 46.6979C14.0214 46.6979 15.2657 47.2048 15.2657 49.3535L15.2622 57.3058C15.2622 59.9316 16.3312 59.9772 16.3312 59.9772H19.8712C19.7796 59.9316 18.5123 58.9847 18.5123 57.2834V50.2294C18.5559 49.9159 19.0906 48.8505 20.6178 48.8505C21.483 48.8505 22.4339 49.7438 22.4124 50.7482L22.4094 57.3023C22.4094 59.9663 23.4639 59.9737 23.4639 59.9737H27.0179C27.0179 59.9737 25.659 59.0264 25.659 57.28L25.6485 50.2239C25.7816 49.8306 26.2493 48.8724 27.5907 48.8724C28.6592 48.8724 29.554 49.7656 29.533 50.7705C29.533 50.7705 29.526 56.7532 29.5295 57.3087C29.5455 59.9901 30.5845 59.9658 30.5845 59.9658C32.4351 59.9658 34.1385 59.9732 34.1385 59.9732C34.1385 59.9732 32.7836 59.0457 32.7836 57.3043ZM38.9939 57.3013C38.9939 59.0665 40.3579 59.9742 40.3579 59.9742C40.3579 59.9742 38.6675 59.9668 36.8178 59.9668C36.8178 59.9668 35.7318 59.9826 35.7318 57.3216V57.3097L35.7353 49.3351C35.7353 47.2321 34.505 46.692 34.505 46.692H36.6531C37.4107 46.692 38.9874 46.692 38.9874 49.6659L38.9819 57.2889L38.9939 57.3013ZM49.9014 47.6939C49.9014 47.6939 49.5599 46.7381 48.0894 46.7381C45.8657 46.7381 45.3239 49.3554 45.3239 49.3554C45.1432 47.2867 44.5834 46.6751 43.0141 46.6751L40.8661 46.6806C40.8661 46.6806 42.1109 47.186 42.1109 49.3346L42.1069 57.2973C42.1069 59.9251 43.1754 59.9683 43.1754 59.9683H46.7154C46.6243 59.9251 45.357 58.9778 45.357 57.276L45.361 50.7566C45.4541 50.1654 45.7621 49.7106 46.2292 49.411C47.3959 48.6625 48.9891 48.8401 49.9014 49.9437V47.6939ZM66.4219 48.175C67.6211 48.175 68.5159 48.6938 68.5159 48.6938L68.5264 46.69H65.5487L65.5507 43.6515C65.5507 43.6515 64.7686 44.9922 63.1673 46.2947C62.1619 47.1126 60.0504 48.1229 60.0504 48.1229L62.2986 48.1631L62.2945 57.404C62.2945 59.9668 63.3761 59.9668 63.3761 59.9668C65.3183 59.9668 66.9121 59.9742 66.9121 59.9742C66.9121 59.9742 65.5452 59.0665 65.5452 57.3811L65.5482 48.17C66.4815 48.173 65.8391 48.175 66.4219 48.175ZM77.1872 52.1871C75.2009 54.245 73.6422 53.9226 72.3934 55.4304C72.3934 55.4324 72.5937 57.4749 74.1714 58.1956C74.7102 58.4431 76.8968 59.2248 78.3138 56.8028L78.3038 58.946C78.3038 58.946 77.3945 59.9921 74.5084 59.9921C71.03 59.9921 68.6476 57.2829 68.6476 53.6086C68.6476 49.9958 70.5898 46.6419 74.257 46.623C77.8512 46.6047 79.7974 49.4814 77.1872 52.1871ZM75.0131 51.3439C75.601 50.2681 76.0636 47.5356 74.0548 47.6854C71.7274 47.8585 72.1701 53.989 72.1701 53.989C72.9487 53.1513 74.1163 52.9807 75.0131 51.3439ZM37.3486 45.6171C38.2609 45.6171 39.0009 44.8999 39.0009 44.0156C39.0009 43.1312 38.2609 42.4135 37.3486 42.4135C36.4363 42.4135 35.6962 43.1312 35.6962 44.0156C35.6962 44.8999 36.4363 45.6171 37.3486 45.6171ZM53.5902 58.4674C52.7825 58.4674 52.2052 57.6351 52.2052 56.782C52.2052 53.4668 54.9456 53.0089 55.6781 52.1241L55.6842 57.714C55.3602 57.9987 55.0317 58.4674 53.5902 58.4674ZM55.6781 50.8444C54.8545 52.2739 48.4474 52.5769 49.4298 57.4858C49.8178 59.4326 51.1277 60 52.7745 60C54.3743 60 55.3357 59.1727 55.7387 58.4029C55.9776 59.881 56.7311 59.9663 56.7311 59.9663C58.5823 59.9663 60.2722 59.9737 60.2722 59.9737C60.2722 59.9737 58.8932 59.066 58.8932 57.3147V49.8519C58.8932 48.0669 56.8954 46.6776 54.7714 46.6776C52.7305 46.6776 51.4471 47.6512 51.4471 47.6512V49.967C51.4471 49.967 52.1757 48.1323 54.0223 48.1323C55.8249 48.1323 55.9575 49.0216 55.947 49.4656C55.947 49.4656 56.1293 50.0662 55.6781 50.8444ZM85.0254 56.3673C85.0449 57.3062 84.1972 58.5393 82.3936 58.5393C80.547 58.5393 79.8099 56.6674 79.8099 56.6674V59.0393C79.8099 59.0393 81.1418 59.9797 83.1827 59.9797C85.6052 59.9797 88.0542 58.1559 87.9991 55.6174C87.9816 54.7241 87.6596 53.9632 87.1679 53.307C86.3482 52.2188 84.8561 51.458 83.701 50.7542C83.042 50.3519 82.6915 49.6332 82.684 49.3802C82.6645 48.9358 82.8818 48.0381 84.6859 48.0381C86.4454 48.0381 87.1944 49.8728 87.1944 49.8728L87.1874 47.6512C87.1874 47.6512 85.841 46.5923 83.7996 46.5923C81.6756 46.5923 79.7478 47.982 79.7839 49.7661C79.8169 51.3335 80.4839 52.3488 81.7777 53.3051C82.289 53.6825 82.8993 54.05 83.6053 54.4384C84.6363 55.0043 85.0118 55.6972 85.0254 56.3673Z" fill="black"/>
</g>
</svg>
