<svg width="168" height="52" viewBox="0 0 168 52" fill="none" xmlns="http://www.w3.org/2000/svg">
<path opacity="0.5" d="M48.401 36.9037C48.1647 36.2491 47.8885 35.6159 47.6256 35.0293C47.2207 34.1322 46.8081 33.2385 46.3879 32.3482L46.3551 32.2786C42.643 24.3543 38.756 16.511 34.6969 8.75409L34.5233 8.42259C34.1012 7.60896 33.6718 6.79907 33.2351 5.99303C32.7111 4.96836 32.0753 4.00313 31.3392 3.11446C30.5101 2.13887 29.4743 1.35451 28.3047 0.816655C27.1344 0.278578 25.859 -0.000167703 24.5679 7.56956e-08C23.2768 0.000167855 22.0014 0.279245 20.8313 0.817626C19.6619 1.35573 18.6263 2.14031 17.7975 3.11608C17.0624 4.00494 16.4272 4.9699 15.9032 5.994C15.4625 6.80748 15.0292 7.62482 14.6032 8.4459L14.4424 8.75344C10.3833 16.5107 6.49619 24.3544 2.78383 32.2789L2.73067 32.3922C2.31772 33.2678 1.91204 34.1468 1.51366 35.029C1.25116 35.6152 0.975205 36.2481 0.738628 36.9043C0.0609244 38.6916 -0.155135 40.6171 0.109942 42.5074C0.391462 44.4182 1.1747 46.2231 2.38187 47.743C3.58994 49.2641 5.17963 50.4476 6.99366 51.1764C8.36457 51.7236 9.83 52.0032 11.3088 52C11.7734 52 12.2377 51.9731 12.6994 51.92C14.5696 51.6849 16.3735 51.0845 18.0058 50.1538C20.1462 48.9673 22.2603 47.2286 24.5696 44.744C26.879 47.2286 28.9928 48.9673 31.1334 50.1534C32.7657 51.0844 34.5696 51.685 36.4399 51.92C36.9014 51.9731 37.3658 51.9998 37.8305 52C39.3093 52.0032 40.7747 51.7235 42.1453 51.1764C43.9594 50.4476 45.5492 49.2641 46.7574 47.743C47.9646 46.2231 48.7478 44.4182 49.0293 42.5074C49.2942 40.617 49.0783 38.6912 48.401 36.9037ZM24.5696 39.6123C21.7107 36.0371 19.8765 32.7169 19.2327 29.9338C18.9689 28.891 18.9066 27.8085 19.049 26.7429C19.1616 25.9615 19.4525 25.2156 19.8998 24.5613C20.4506 23.8567 21.1581 23.2863 21.9676 22.8941C22.7776 22.5019 23.6678 22.2981 24.57 22.2982C25.4723 22.2983 26.3625 22.5024 27.1723 22.8948C27.9818 23.287 28.6891 23.8574 29.2398 24.5619C29.6871 25.2164 29.978 25.9624 30.0907 26.7439C30.2329 27.8098 30.1703 28.8927 29.9063 29.9358C29.2618 32.7189 27.4279 36.038 24.5696 39.6123ZM45.6903 42.0367C45.4934 43.3726 44.9458 44.6344 44.1019 45.697C43.2572 46.7606 42.1456 47.5882 40.8771 48.0978C39.5938 48.605 38.2017 48.7847 36.8294 48.6203C35.4031 48.4391 34.0285 47.9759 32.7878 47.2584C30.8824 46.2024 28.9537 44.5812 26.7832 42.2027C30.2383 37.9998 32.3961 34.1258 33.1947 30.6749C33.5542 29.224 33.6321 27.7192 33.4244 26.2398C33.236 24.9649 32.7564 23.749 32.022 22.6837C31.161 21.5338 30.0383 20.5993 28.7444 19.9557C27.4497 19.3116 26.0199 18.976 24.57 18.976C23.12 18.976 21.6903 19.3116 20.3956 19.9557C19.1015 20.599 17.9787 21.5332 17.1176 22.683C16.3834 23.7479 15.9038 24.9635 15.7152 26.2379C15.5074 27.7168 15.5849 29.2211 15.9436 30.6716C16.7419 34.1235 18.8997 37.9988 22.3558 42.2031C20.1856 44.5811 18.2569 46.2024 16.3514 47.2587C15.1108 47.9761 13.7362 48.4392 12.3099 48.6203C10.9375 48.7847 9.54522 48.605 8.26186 48.0978C6.99357 47.5882 5.88209 46.7608 5.03738 45.6974C4.19349 44.6346 3.646 43.3727 3.44926 42.0367C3.26021 40.6789 3.42114 39.2961 3.91717 38.016C4.10551 37.4928 4.32634 36.9801 4.59967 36.3702C4.99061 35.5047 5.38863 34.6424 5.79371 33.7833L5.84687 33.6693C9.53889 25.789 13.4047 17.989 17.4415 10.275L17.6029 9.96579C18.0163 9.17493 18.4436 8.35688 18.8747 7.56666C19.2873 6.75195 19.7865 5.98287 20.3641 5.27242C20.8767 4.66257 21.5193 4.17172 22.246 3.83479C22.9728 3.49786 23.766 3.32315 24.569 3.32309C25.372 3.32303 26.1652 3.49762 26.892 3.83443C27.6189 4.17125 28.2615 4.66201 28.7742 5.27177C29.3522 5.98163 29.8516 6.75043 30.2639 7.56504C30.6908 8.34846 31.1144 9.15907 31.5242 9.94281L31.6981 10.2753C35.735 17.9893 39.6007 25.7894 43.2924 33.67L43.3252 33.7399C43.7288 34.602 44.1465 35.4929 44.5396 36.3705C44.8133 36.981 45.0344 37.4945 45.2224 38.0157C45.7182 39.2958 45.8791 40.6786 45.6903 42.0363M68.6568 39.1937C67.341 39.1937 66.1302 38.9338 65.0244 38.4132C63.9186 37.8926 62.9713 37.1636 62.1291 36.2271C61.2868 35.2902 60.6551 34.1973 60.181 32.9999C59.7072 31.7506 59.4965 30.3971 59.4965 28.94C59.4965 27.4826 59.76 26.077 60.2338 24.8277C60.7076 23.5788 61.3921 22.4856 62.2344 21.4966C63.0767 20.5597 64.0768 19.7789 65.2351 19.2583C66.3934 18.7378 67.6041 18.4775 68.9731 18.4775C70.2888 18.4775 71.4471 18.7378 72.5004 19.3105C73.5534 19.831 74.3957 20.6118 75.0798 21.6005L75.2379 19.0502H80.0811V38.6735H75.2379L75.0798 35.8108C74.3957 36.8515 73.5005 37.6845 72.3422 38.309C71.2893 38.882 70.0257 39.194 68.6571 39.194M69.921 34.5097C70.8686 34.5097 71.7109 34.2494 72.5007 33.781C73.2377 33.2605 73.8165 32.5839 74.2907 31.7512C74.7116 30.9183 74.9223 29.9293 74.9223 28.8361C74.9223 27.7429 74.7116 26.7539 74.2907 25.9213C73.8693 25.0883 73.2374 24.4117 72.5007 23.8915C71.7634 23.3706 70.8686 23.1625 69.921 23.1625C68.9734 23.1625 68.1311 23.4228 67.3413 23.8912C66.6043 24.4117 66.0252 25.0883 65.5514 25.9209C65.1301 26.7539 64.9194 27.7429 64.9194 28.8361C64.9194 29.9293 65.1301 30.9183 65.5514 31.7509C65.9724 32.5839 66.6043 33.2605 67.3413 33.7807C68.1311 34.2494 68.9734 34.5097 69.921 34.5097ZM88.3472 13.7411C88.3472 14.3138 88.2418 14.8343 87.9784 15.2506C87.7057 15.6848 87.3252 16.0431 86.8729 16.2917C86.3991 16.552 85.8728 16.6559 85.3465 16.6559C84.8198 16.6559 84.2932 16.552 83.8194 16.2917C83.3671 16.0431 82.9866 15.6848 82.7139 15.2506C82.4508 14.7822 82.3454 14.3138 82.3454 13.7411C82.3454 13.1687 82.4504 12.6482 82.7139 12.2316C82.9771 11.7631 83.3456 11.451 83.8197 11.1908C84.2932 10.9305 84.8198 10.8263 85.3465 10.8263C85.8728 10.8263 86.3991 10.9305 86.8729 11.1908C87.3253 11.4392 87.7059 11.7975 87.9787 12.2316C88.189 12.6482 88.3472 13.1166 88.3472 13.7411ZM82.7139 38.6217V18.9981H87.9784V38.6214L82.7139 38.6217ZM102.035 24.1511V24.2036C101.772 24.0993 101.456 24.0472 101.193 23.9954C100.877 23.9433 100.613 23.9433 100.298 23.9433C98.8235 23.9433 97.7181 24.3596 96.9811 25.2447C96.1913 26.1294 95.8228 27.3787 95.8228 28.9921V38.6217H90.5584V18.9981H95.4015L95.5597 21.965C96.086 20.9239 96.7179 20.1431 97.6127 19.5707C98.455 18.9977 99.4552 18.7378 100.613 18.7378C100.982 18.7378 101.351 18.7896 101.667 18.8417C101.824 18.8938 101.93 18.8938 102.035 18.9459V24.1511ZM104.141 38.6217V10.9302H109.406V21.4966C110.143 20.56 110.985 19.831 112.038 19.2587C113.091 18.7381 114.249 18.4257 115.565 18.4257C116.881 18.4257 118.092 18.686 119.197 19.2065C120.303 19.7271 121.251 20.4558 122.093 21.3927C122.936 22.3295 123.567 23.4228 124.041 24.6202C124.515 25.8691 124.725 27.2223 124.725 28.6797C124.725 30.1375 124.462 31.5428 123.989 32.792C123.515 34.0413 122.83 35.1342 121.988 36.1232C121.146 37.0603 120.145 37.8409 118.987 38.3614C117.829 38.882 116.618 39.1422 115.249 39.1422C113.933 39.1422 112.775 38.882 111.722 38.3093C110.669 37.7887 109.827 37.0079 109.142 36.0192L108.984 38.5696L104.141 38.6217ZM114.301 34.5097C115.249 34.5097 116.092 34.2494 116.881 33.781C117.618 33.2605 118.197 32.5839 118.671 31.7512C119.092 30.9183 119.303 29.9293 119.303 28.8361C119.303 27.7429 119.092 26.7539 118.671 25.9213C118.197 25.0883 117.618 24.4117 116.881 23.8915C116.144 23.3706 115.249 23.1625 114.301 23.1625C113.354 23.1625 112.512 23.4228 111.722 23.8912C110.985 24.4117 110.406 25.0883 109.932 25.9209C109.511 26.7539 109.3 27.7429 109.3 28.8361C109.3 29.9293 109.511 30.9183 109.932 31.7509C110.353 32.5839 110.985 33.2605 111.722 33.7807C112.512 34.2494 113.354 34.5097 114.301 34.5097ZM126.726 38.6217V18.9981H131.569L131.728 21.5487C132.307 20.6115 133.096 19.8828 134.097 19.3105C135.097 18.7378 136.255 18.4775 137.571 18.4775C139.045 18.4775 140.309 18.8417 141.362 19.5186C142.467 20.1952 143.31 21.1842 143.889 22.4334C144.468 23.6827 144.784 25.1919 144.784 26.9099V38.6735H139.519V27.5865C139.519 26.2333 139.203 25.1401 138.572 24.359C137.94 23.5788 137.097 23.1622 135.992 23.1622C135.202 23.1622 134.518 23.3182 133.886 23.6827C133.307 24.0469 132.833 24.5153 132.464 25.1922C132.096 25.8167 131.938 26.5972 131.938 27.3784V38.6214L126.726 38.6217ZM147.416 38.6217V10.9302H152.681V21.4966C153.418 20.56 154.26 19.831 155.313 19.2587C156.366 18.7381 157.524 18.4257 158.84 18.4257C160.157 18.4257 161.367 18.686 162.473 19.2065C163.579 19.7271 164.526 20.4558 165.368 21.3927C166.211 22.3295 166.842 23.4228 167.317 24.6202C167.791 25.8691 168 27.2223 168 28.6797C168 30.1375 167.738 31.5428 167.264 32.792C166.79 34.0413 166.106 35.1342 165.262 36.1232C164.421 37.0603 163.42 37.8409 162.262 38.3614C161.104 38.882 159.893 39.1422 158.524 39.1422C157.208 39.1422 156.05 38.882 154.997 38.3093C153.944 37.7887 153.102 37.0079 152.417 36.0192L152.26 38.5696L147.416 38.6217ZM157.629 34.5097C158.577 34.5097 159.419 34.2494 160.209 33.781C160.946 33.2605 161.525 32.5839 161.999 31.7512C162.42 30.9183 162.631 29.9293 162.631 28.8361C162.631 27.7429 162.42 26.7539 161.999 25.9213C161.578 25.0883 160.946 24.4117 160.209 23.8915C159.472 23.3706 158.577 23.1625 157.629 23.1625C156.682 23.1625 155.839 23.4228 155.05 23.8912C154.313 24.4117 153.734 25.0883 153.26 25.9209C152.786 26.7539 152.628 27.7429 152.628 28.8361C152.628 29.9293 152.839 30.9183 153.26 31.7509C153.681 32.5839 154.313 33.2605 155.05 33.7807C155.839 34.2494 156.629 34.5097 157.629 34.5097Z" fill="black"/>
</svg>
