<svg width="260" height="45" viewBox="0 0 260 45" fill="none" xmlns="http://www.w3.org/2000/svg">
<g opacity="0.5">
<mask id="mask0_8_153" style="mask-type:luminance" maskUnits="userSpaceOnUse" x="0" y="0" width="260" height="45">
<path d="M0 1.14441e-05H259.882V44.0974H0V1.14441e-05Z" fill="white"/>
</mask>
<g mask="url(#mask0_8_153)">
<mask id="mask1_8_153" style="mask-type:luminance" maskUnits="userSpaceOnUse" x="0" y="-1" width="260" height="46">
<path d="M0 44.0972H259.882V-0.000232697H0V44.0972Z" fill="white"/>
</mask>
<g mask="url(#mask1_8_153)">
<path d="M101.912 4.82642C101.912 3.77905 102.328 2.77458 103.069 2.03398C103.81 1.29338 104.814 0.87731 105.861 0.87731C106.909 0.87731 107.913 1.29338 108.654 2.03398C109.394 2.77458 109.81 3.77905 109.81 4.82642C109.772 5.84828 109.34 6.81557 108.603 7.52503C107.867 8.23449 106.884 8.63086 105.861 8.63086C104.839 8.63086 103.856 8.23449 103.12 7.52503C102.383 6.81557 101.95 5.84828 101.912 4.82642Z" fill="black"/>
<path d="M164.221 31.1637C164.221 28.9719 165.986 27.2009 168.162 27.2009C169.212 27.2009 170.219 27.6181 170.962 28.3608C171.704 29.1034 172.122 30.1107 172.122 31.161C172.122 32.2113 171.704 33.2185 170.962 33.9612C170.219 34.7039 169.212 35.1211 168.162 35.1211C165.989 35.1211 164.221 33.3473 164.221 31.161" fill="black"/>
<path d="M37.1014 29.4505C33.7023 29.4505 31.3372 26.7499 31.3372 22.8888C31.3372 19.0305 33.7022 16.3327 37.1041 16.3327C40.5224 16.3327 42.9122 19.0305 42.9122 22.8888C42.9122 26.8104 40.5747 29.4505 37.1014 29.4505ZM37.1014 10.5658C29.9072 10.5658 24.6848 15.7497 24.6848 22.8888C24.6848 30.0308 29.91 35.2119 37.1014 35.2119C44.3258 35.2119 49.5674 30.0308 49.5674 22.8916C49.5674 15.7497 44.3231 10.5658 37.1014 10.5658ZM94.2643 23.5076C94.0139 23.0233 93.6974 22.5763 93.3238 22.1793L93.1037 21.9511L93.3349 21.7311C93.6649 21.3818 94.003 20.9693 94.3275 20.4908L100.68 11.0525H92.9691L88.1976 18.4365C87.9281 18.8325 87.3837 19.0305 86.5669 19.0305H85.4806V5.07113C85.4806 2.2798 83.7399 1.9003 81.8616 1.9003H78.6439L78.6521 34.8489H85.4833V24.9651H86.1242C86.9024 24.9651 87.4303 25.0559 87.6751 25.4794L91.4427 32.5911C92.496 34.5216 93.5437 34.8489 95.5183 34.8489H100.752L96.8522 28.4027L94.2671 23.5076M127.425 10.5108C123.949 10.5108 121.732 12.0563 120.489 13.3626L120.077 13.7806L119.928 13.2113C119.565 11.8116 118.333 11.0443 116.482 11.0443H113.421L113.441 34.8407H120.225V23.8734C120.225 22.8008 120.362 21.8713 120.648 21.0215C121.402 18.4502 123.509 16.8524 126.14 16.8524C128.258 16.8524 129.086 17.9717 129.086 20.8593V31.2243C129.086 33.6884 130.227 34.8407 132.694 34.8407H135.922L135.911 19.7043C135.911 13.6926 132.977 10.5108 127.425 10.5108ZM105.944 11.0525H102.729L102.751 29.4533V34.8489H106.18L106.301 34.8544L107.902 34.8489H109.492V34.8407H109.502L109.516 14.6689C109.516 12.2351 108.353 11.0553 105.947 11.0553M63.7467 29.4505C60.3477 29.4505 57.9799 26.7499 57.9799 22.8888C57.9799 19.0305 60.3478 16.3327 63.7496 16.3327C67.1597 16.3327 69.5578 19.0305 69.5578 22.8888C69.5578 26.8104 67.2202 29.4505 63.7496 29.4505H63.7467ZM63.7467 10.5658C56.5471 10.5658 51.3219 15.7497 51.3219 22.8888C51.3219 30.0308 56.5472 35.2119 63.7496 35.2119C70.963 35.2119 76.2156 30.0308 76.2156 22.8916C76.2156 15.7497 70.963 10.5658 63.7496 10.5658" fill="black"/>
</g>
</g>
<mask id="mask2_8_153" style="mask-type:luminance" maskUnits="userSpaceOnUse" x="0" y="0" width="260" height="45">
<path d="M0 1.14441e-05H259.882V44.0974H0V1.14441e-05Z" fill="white"/>
</mask>
<g mask="url(#mask2_8_153)">
<mask id="mask3_8_153" style="mask-type:luminance" maskUnits="userSpaceOnUse" x="0" y="0" width="260" height="45">
<path d="M0 0.868927H259.827V44.0396H0V0.868927Z" fill="white"/>
</mask>
<g mask="url(#mask3_8_153)">
<mask id="mask4_8_153" style="mask-type:luminance" maskUnits="userSpaceOnUse" x="0" y="0" width="260" height="45">
<path d="M0 44.0974H259.882V1.14441e-05H0V44.0974Z" fill="white"/>
</mask>
<g mask="url(#mask4_8_153)">
<path d="M209.157 29.4505C205.758 29.4505 203.387 26.7499 203.387 22.8888C203.387 19.0305 205.758 16.3327 209.157 16.3327C212.572 16.3327 214.968 19.0305 214.968 22.8888C214.968 26.8104 212.63 29.4505 209.157 29.4505ZM209.157 10.5658C201.957 10.5658 196.735 15.7497 196.735 22.8888C196.735 30.0308 201.957 35.2119 209.157 35.2119C216.373 35.2119 221.623 30.0308 221.623 22.8916C221.623 15.7497 216.37 10.5658 209.157 10.5658Z" fill="black"/>
<path d="M150.215 28.4028C146.505 28.4028 145.185 25.1687 145.185 22.1354C145.185 20.7989 145.523 16.4455 149.86 16.4455C152.013 16.4455 154.881 17.0615 154.881 22.3582C154.881 27.355 152.343 28.4028 150.215 28.4028ZM158.404 10.9894C157.117 10.9894 156.127 11.5036 155.629 12.4414L155.442 12.8044L155.129 12.5294C154.034 11.5834 152.071 10.4586 148.883 10.4586C142.539 10.4586 138.268 15.2245 138.268 22.3114C138.268 29.3956 142.688 34.3457 149.01 34.3457C151.169 34.3457 152.876 33.8397 154.23 32.8167L154.752 32.4234V33.0834C154.752 36.2625 152.698 38.0171 148.971 38.0171C147.159 38.0171 145.512 37.5771 144.406 37.1755C142.971 36.741 142.124 37.1013 141.543 38.5451L141.005 39.8761L140.243 41.8232L140.713 42.0734C143.1 43.3385 146.205 44.0947 149.01 44.0947C154.785 44.0947 161.534 41.1384 161.534 32.8167L161.559 10.9894H158.404Z" fill="black"/>
</g>
</g>
</g>
<mask id="mask5_8_153" style="mask-type:luminance" maskUnits="userSpaceOnUse" x="0" y="0" width="260" height="45">
<path d="M0 1.14441e-05H259.882V44.0974H0V1.14441e-05Z" fill="white"/>
</mask>
<g mask="url(#mask5_8_153)">
<mask id="mask6_8_153" style="mask-type:luminance" maskUnits="userSpaceOnUse" x="0" y="-1" width="260" height="46">
<path d="M0 44.0972H259.882V-0.000232697H0V44.0972Z" fill="white"/>
</mask>
<g mask="url(#mask6_8_153)">
<path d="M11.8391 29.1781L6.31692 29.1726V22.5724C6.31692 21.1589 6.86419 20.4273 8.07147 20.2568H11.8391C14.5259 20.2568 16.2639 21.9509 16.2666 24.6927C16.2639 27.5088 14.5699 29.1753 11.8391 29.1753V29.1781ZM6.31692 11.3686V9.63057C6.31692 8.10978 6.96046 7.38651 8.37125 7.29301H11.1984C13.6212 7.29301 15.0732 8.74229 15.0732 11.1706C15.0732 13.0187 14.0776 15.1775 11.2863 15.1775H6.31692V11.3686ZM18.8903 17.9578L17.8919 17.3968L18.7638 16.6515C19.7785 15.7797 21.4754 13.8189 21.4754 10.4363C21.4754 5.2552 17.4603 1.91111 11.2423 1.91111H3.33857C2.44923 1.94354 1.60651 2.31689 0.984965 2.9538C0.363417 3.59071 0.010725 4.44234 1.52588e-05 5.3322V34.7305H11.3825C18.2934 34.7305 22.7541 30.9684 22.7541 25.141C22.7541 22.0031 21.3131 19.3218 18.8903 17.9578Z" fill="black"/>
<path d="M251.926 10.5904C250.525 10.5955 249.144 10.9153 247.883 11.526C246.623 12.1367 245.516 13.0227 244.644 14.1187L244.154 14.7402L243.769 14.0445C242.51 11.7537 240.348 10.5904 237.342 10.5904C234.188 10.5904 232.073 12.3504 231.091 13.3954L230.448 14.0912L230.2 13.1754C229.843 11.8554 228.669 11.1321 226.892 11.1321H224.04L224.013 34.8378H230.489V24.3737C230.489 23.4552 230.605 22.5504 230.833 21.6017C231.452 19.0716 233.151 16.3518 236.008 16.624C237.768 16.7945 238.632 18.1558 238.632 20.7849V34.8378H245.155V24.3737C245.155 23.227 245.263 22.3689 245.521 21.5109C246.044 19.0963 247.82 16.6213 250.576 16.6213C252.572 16.6213 253.309 17.7488 253.309 20.7849V31.3727C253.309 33.7652 254.376 34.8378 256.772 34.8378H259.819L259.824 19.7041C259.824 13.6567 257.162 10.5904 251.926 10.5904ZM192.981 26.6068C192.962 26.6315 190.176 29.5686 186.504 29.5686C183.16 29.5686 179.783 27.5171 179.783 22.9382C179.783 18.9836 182.401 16.2198 186.152 16.2198C187.368 16.2198 188.754 16.6543 188.971 17.3886L189.002 17.5123C189.14 18.0178 189.442 18.4635 189.859 18.7802C190.277 19.0969 190.787 19.267 191.312 19.2641L194.859 19.2696V16.1675C194.859 12.0754 189.653 10.5904 186.152 10.5904C178.661 10.5904 173.227 15.8045 173.227 22.9877C173.227 30.1654 178.601 35.374 186.015 35.374C192.445 35.374 195.943 31.1472 195.976 31.1059L196.163 30.8749L193.352 26.2135L192.981 26.6068Z" fill="black"/>
</g>
</g>
</g>
</svg>
