<svg width="208" height="46" viewBox="0 0 208 46" fill="none" xmlns="http://www.w3.org/2000/svg">
<path opacity="0.5" d="M206.831 30.4428C206.186 30.4428 205.662 30.9668 205.662 31.612C205.662 32.2572 206.186 32.7812 206.831 32.7812C207.476 32.7812 208 32.2572 208 31.612C208 30.9668 207.476 30.4428 206.831 30.4428ZM206.831 32.5958C206.287 32.5958 205.847 32.1533 205.847 31.612C205.847 31.0682 206.289 30.6282 206.831 30.6282C207.375 30.6282 207.817 31.0707 207.817 31.612C207.817 32.1533 207.375 32.5958 206.831 32.5958ZM207.211 31.4118C207.211 31.1992 207.061 31.0731 206.838 31.0731H206.465V32.1385H206.648V31.7529H206.848L207.041 32.1385H207.238L207.026 31.7134C207.14 31.6614 207.211 31.5576 207.211 31.4118ZM206.831 31.5873H206.65V31.2339H206.831C206.954 31.2339 207.029 31.2956 207.029 31.4094C207.028 31.5255 206.952 31.5873 206.831 31.5873ZM65.9517 18.61V15.7822H61.6161V32.6057H65.9517V22.5181C65.9517 20.6913 67.1234 19.794 68.9501 19.794H71.3231V15.7822H69.2962C67.7093 15.7822 66.33 16.6102 65.9517 18.61ZM75.3844 9.12793C73.9013 9.12793 72.7642 10.2996 72.7642 11.7827C72.7642 13.2312 73.9013 14.4029 75.3844 14.4029C76.8675 14.4029 78.0046 13.2312 78.0046 11.7827C78.0045 10.2996 76.8675 9.12793 75.3844 9.12793ZM73.2215 32.6057H77.5473V15.7822H73.2215V32.6057ZM98.1527 24.1939C98.1527 28.9967 94.2596 32.89 89.4567 32.89C87.5187 32.89 85.7612 32.2547 84.3522 31.1819V37.5445H80.0265V15.7822H84.3522V17.2059C85.7612 16.1332 87.5187 15.4979 89.4567 15.4979C94.2596 15.4979 98.1527 19.3911 98.1527 24.1939ZM93.7998 24.1939C93.7998 21.5861 91.6839 19.4702 89.0761 19.4702C86.4682 19.4702 84.3523 21.5861 84.3523 24.1939C84.3523 26.8018 86.4683 28.9177 89.0761 28.9177C91.6839 28.9177 93.7998 26.8042 93.7998 24.1939ZM173.337 22.7182L170.813 22.0261C169.152 21.5935 168.507 21.0843 168.507 20.2068C168.507 19.3515 169.417 18.7533 170.717 18.7533C171.955 18.7533 172.927 19.5641 172.927 20.6023V20.6986H176.914V20.6023C176.914 17.5495 174.425 15.4978 170.717 15.4978C167.046 15.4978 164.379 17.547 164.379 20.3723C164.379 22.5698 165.835 24.226 168.376 24.9131L170.793 25.5732C172.63 26.0823 173.312 26.646 173.312 27.657C173.312 28.7224 172.326 29.4392 170.858 29.4392C169.328 29.4392 168.297 28.4702 168.297 27.0316V26.9352H164.065V27.0316C164.065 30.4823 166.843 32.8948 170.823 32.8948C174.657 32.8948 177.44 30.5392 177.44 27.2961C177.44 25.7042 176.728 23.623 173.337 22.7182ZM113.498 15.7822H117.824V32.6057H113.498V31.1818C112.089 32.2547 110.332 32.8899 108.394 32.8899C103.591 32.8899 99.6977 28.9967 99.6977 24.1939C99.6977 19.391 103.591 15.4978 108.394 15.4978C110.332 15.4978 112.089 16.1331 113.498 17.2059V15.7822ZM113.498 24.1939C113.498 21.5836 111.382 19.4702 108.774 19.4702C106.166 19.4702 104.051 21.5861 104.051 24.1939C104.051 26.8018 106.166 28.9177 108.774 28.9177C111.385 28.9177 113.498 26.8042 113.498 24.1939ZM133.444 9.79532H137.769V32.6081H133.444V31.1843C132.035 32.2572 130.277 32.8924 128.339 32.8924C123.536 32.8924 119.643 28.9992 119.643 24.1963C119.643 19.3935 123.536 15.5003 128.339 15.5003C130.277 15.5003 132.035 16.1356 133.444 17.2083V9.79532ZM133.444 24.1939C133.444 21.5861 131.328 19.4702 128.72 19.4702C126.112 19.4702 123.996 21.5861 123.996 24.1939C123.996 26.8018 126.109 28.9177 128.72 28.9177C131.328 28.9177 133.444 26.8042 133.444 24.1939ZM157.853 32.6057H162.179V15.7822H157.853V32.6057ZM160.016 9.12793C158.533 9.12793 157.396 10.2996 157.396 11.7827C157.396 13.2312 158.533 14.4029 160.016 14.4029C161.499 14.4029 162.636 13.2312 162.636 11.7827C162.636 10.2996 161.499 9.12793 160.016 9.12793ZM196.137 24.1939C196.137 28.9967 192.244 32.89 187.441 32.89C182.639 32.89 178.745 28.9968 178.745 24.1939C178.745 19.391 182.639 15.4979 187.441 15.4979C192.244 15.4979 196.137 19.3911 196.137 24.1939ZM192.165 24.1939C192.165 21.5861 190.049 19.4702 187.441 19.4702C184.834 19.4702 182.718 21.5861 182.718 24.1939C182.718 26.8018 184.831 28.9177 187.441 28.9177C190.049 28.9177 192.165 26.8042 192.165 24.1939ZM63.7369 9.79532H47.1433V13.6539H53.2859V32.6057H57.5968V13.6539H63.7395V9.79532H63.7369ZM147.654 27.9981L143.806 15.7822H139.262L145.034 32.6057H150.24L156.046 15.7822H151.503L147.654 27.9981ZM202.475 18.61V15.7822H198.14V32.6057H202.475V22.5181C202.475 20.6913 203.647 19.794 205.474 19.794H207.847V15.7822H205.82C204.233 15.7822 202.856 16.6102 202.475 18.61Z" fill="black"/>
<path opacity="0.2" d="M22.1232 45.1233C34.3415 45.1233 44.2464 35.2184 44.2464 23.0001C44.2464 10.7818 34.3415 0.876953 22.1232 0.876953C9.90488 0.876953 0 10.7818 0 23.0001C0 35.2184 9.90488 45.1233 22.1232 45.1233Z" fill="#939393"/>
<path opacity="0.5" d="M35.7876 18.6842L38.4572 15.7797H32.5371C29.5733 13.7552 25.9941 12.5762 22.1231 12.5762C18.2571 12.5762 14.6878 13.7578 11.7289 15.7797H5.79398L8.46359 18.6842C6.82724 20.1772 5.80142 22.3277 5.80142 24.7156C5.80142 29.2218 9.45488 32.8752 13.9611 32.8752C16.1017 32.8752 18.052 32.0496 19.5079 30.6999L22.1232 33.5475L24.7384 30.7024C26.1944 32.0521 28.1421 32.8752 30.2828 32.8752C34.789 32.8752 38.4473 29.2218 38.4473 24.7156C38.4498 22.3252 37.424 20.1747 35.7876 18.6842ZM13.9635 30.2377C10.9132 30.2377 8.44139 27.7659 8.44139 24.7156C8.44139 21.6652 10.9132 19.1934 13.9635 19.1934C17.0138 19.1934 19.4856 21.6652 19.4856 24.7156C19.4856 27.7659 17.0138 30.2377 13.9635 30.2377ZM22.1256 24.5549C22.1256 20.9212 19.4832 17.8017 15.9954 16.4694C17.8814 15.6808 19.9503 15.2433 22.1231 15.2433C24.2959 15.2433 26.3672 15.6808 28.2533 16.4694C24.768 17.8042 22.1256 20.9213 22.1256 24.5549ZM30.2853 30.2377C27.2349 30.2377 24.7631 27.7659 24.7631 24.7156C24.7631 21.6652 27.2349 19.1934 30.2853 19.1934C33.3356 19.1934 35.8074 21.6652 35.8074 24.7156C35.8074 27.7659 33.3355 30.2377 30.2853 30.2377ZM30.2853 21.8185C28.6859 21.8185 27.3907 23.1137 27.3907 24.7131C27.3907 26.3123 28.6859 27.6076 30.2853 27.6076C31.8845 27.6076 33.1798 26.3123 33.1798 24.7131C33.1797 23.1162 31.8845 21.8185 30.2853 21.8185ZM16.858 24.7156C16.858 26.3148 15.5628 27.6101 13.9635 27.6101C12.3642 27.6101 11.069 26.3148 11.069 24.7156C11.069 23.1162 12.3642 21.821 13.9635 21.821C15.5628 21.8185 16.858 23.1162 16.858 24.7156Z" fill="black"/>
</svg>
