<svg width="172" height="35" viewBox="0 0 172 35" fill="none" xmlns="http://www.w3.org/2000/svg">
<path opacity="0.5" fill-rule="evenodd" clip-rule="evenodd" d="M144.681 31.4154L143.351 29.745C142.466 30.6279 141.286 31.5658 140.101 31.5658C137.933 31.5658 137.591 29.3957 137.591 27.0322V13.9321H143.302V11.2788H137.544V4.62747H135.374C133.653 8.51469 131.433 10.8828 127.049 11.6171V13.834H129.957V24.4753C129.961 27.2275 130.056 29.0519 130.448 30.3776C131.433 33.7349 134.192 34.9616 137.446 34.9616C140.101 34.9616 142.368 33.9229 144.681 31.4154ZM122.039 0.843838C118.982 1.57911 113.696 2.12094 112.273 2.12094L112.275 4.77599C113.412 4.77599 114.544 4.72373 115.478 4.62747V31.6162L112.125 31.618L112.127 34.2703H126.706V31.618L123.205 31.6162V1.77439C123.205 0.951103 122.709 0.784243 122.475 0.78516C122.341 0.786459 122.207 0.802759 122.077 0.833752L122.039 0.843838Z" fill="black"/>
<path opacity="0.5" fill-rule="evenodd" clip-rule="evenodd" d="M111.342 21.7137C111.342 15.5556 106.858 10.9303 99.9158 10.9321C93.1727 10.9321 87.9452 15.6546 87.947 22.6965C87.947 29.941 93.7109 34.9605 100.801 34.9605C105.483 34.9605 108.975 32.3981 111.246 28.9527L108.83 27.0311C107.849 28.806 104.935 31.7132 102.035 31.7132C97.3543 31.7132 96.2257 27.672 96.2239 23.2869V23.1384H110.406C111.246 23.1393 111.346 22.9945 111.342 21.7137ZM103.66 19.198C103.66 19.5977 103.61 19.9892 103.613 19.7939H96.2229C96.2229 18.1198 96.961 13.2966 100.215 13.2966C102.969 13.2975 103.66 15.6555 103.66 19.198Z" fill="black"/>
<path opacity="0.5" fill-rule="evenodd" clip-rule="evenodd" d="M171.521 30.6765L169.645 29.3967C169.305 30.0412 168.715 31.0222 167.924 31.0222C166.993 31.0222 166.793 30.5766 166.793 28.7036V20.2892C166.793 18.7636 166.793 17.1822 166.351 15.6557C165.12 11.7153 160.737 10.9314 157.14 10.9314C154.579 10.9333 151.772 11.3779 149.407 12.4093C147.486 13.2491 145.763 14.4272 145.763 16.2489C145.763 18.2695 147.093 18.9553 148.524 18.9534C150.247 18.9534 151.527 17.7267 151.527 16.5954C151.527 14.4244 152.269 13.5388 155.517 13.5388C158.32 13.5388 159.158 15.1661 159.161 17.8743C159.161 19.7437 159.111 19.994 158.372 19.9912C155.962 19.9912 152.414 20.5872 150.101 21.6671C147.539 22.9461 145.318 25.0135 145.324 28.1728C145.318 32.1535 148.427 34.9626 152.414 34.9626C155.12 34.9626 157.634 33.5388 159.457 31.6639C160.29 33.9275 162.114 34.9626 164.528 34.9626C167.725 34.9617 170.041 33.5379 171.521 30.6765ZM159.059 28.9053C158.516 29.6433 157.388 30.8727 155.568 30.8727C153.643 30.8727 152.365 29.3453 152.365 27.4778C152.365 23.9812 155.961 22.6454 159.059 22.2603V28.9053ZM85.732 17.8212C85.732 7.92341 79.1347 2.01831 68.1542 2.01831C63.8664 2.01831 60.0736 2.21543 58.1043 2.21543L52.0103 2.21267V5.01074H56.2835L56.2808 31.5163L51.8618 31.5145V34.2704H68.4989C78.6901 34.2704 85.7357 27.575 85.732 17.8212ZM77.0655 17.5782C77.0655 26.1998 73.0252 31.5145 66.4792 31.5145H64.608L64.609 5.07125C65.6376 4.87414 66.0346 4.87414 66.8744 4.87414C73.5166 4.87322 77.0655 8.81454 77.0655 17.5782ZM45.512 33.1565C45.9712 33.1417 46.4066 32.9489 46.7262 32.6188C47.0458 32.2888 47.2245 31.8474 47.2245 31.388C47.2245 30.9286 47.0458 30.4871 46.7262 30.1571C46.4066 29.8271 45.9712 29.6343 45.512 29.6195C45.043 29.6195 44.5932 29.8058 44.2615 30.1374C43.9299 30.4691 43.7435 30.9189 43.7435 31.388C43.7435 31.857 43.9299 32.3068 44.2615 32.6385C44.5932 32.9701 45.043 33.1565 45.512 33.1565ZM45.512 32.82C44.7144 32.82 44.0754 32.1828 44.0754 31.388C44.0782 30.5894 44.7144 29.9559 45.512 29.9559C46.3097 29.9559 46.9422 30.5913 46.9422 31.3871C46.9422 32.1819 46.3097 32.82 45.512 32.82ZM45.9264 31.5447C46.2666 31.5218 46.449 31.376 46.449 31.0258C46.449 30.8251 46.3967 30.6389 46.2235 30.528C46.0814 30.4437 45.8668 30.4418 45.7064 30.4418H44.7859V32.3433L45.1526 32.3451V31.5447H45.5313L45.9558 32.3451L46.3922 32.3433L45.9264 31.5447ZM45.1526 31.2569V30.7141L45.6175 30.716C45.8045 30.716 46.0777 30.7141 46.0777 30.9681C46.0777 31.2101 45.9264 31.2596 45.7146 31.2559L45.1526 31.2569Z" fill="black"/>
<path opacity="0.3" fill-rule="evenodd" clip-rule="evenodd" d="M42.9212 33.9964C42.9248 33.8909 42.8625 33.7837 42.681 33.7112C36.5952 31.0828 29.0509 28.6523 21.5047 28.6523H21.4094C13.865 28.6523 6.31978 31.0819 0.243238 33.7112C0.0635451 33.7827 -0.000630792 33.89 0.00120281 33.9964C-0.013466 34.143 0.108468 34.2778 0.23407 34.2778H42.6782C42.7477 34.2727 42.8124 34.2401 42.8579 34.1874C42.9035 34.1346 42.9262 34.0659 42.9212 33.9964Z" fill="#1F1F1F"/>
<path opacity="0.5" fill-rule="evenodd" clip-rule="evenodd" d="M21.4571 24.3194C14.6957 24.3267 8.09471 27.1734 1.11879 30.8709L0.741983 31.0698C0.681295 31.0991 0.615011 31.1151 0.547622 31.1166C0.434626 31.1146 0.326954 31.0682 0.247991 30.9873C0.169029 30.9065 0.125153 30.7978 0.125894 30.6847C0.126289 30.5961 0.155222 30.51 0.208406 30.439L0.403685 30.153C2.28221 27.3861 17.3379 6.62519 20.7401 1.64422C20.962 1.30317 21.1811 1.16382 21.4571 1.16382C21.7339 1.16382 21.9503 1.30409 22.1795 1.64422C25.5762 6.62519 40.6337 27.387 42.5169 30.153L42.714 30.439C42.7662 30.5087 42.7946 30.5949 42.7946 30.6847C42.7949 30.7989 42.7498 30.9084 42.6694 30.9894C42.589 31.0703 42.4797 31.1161 42.3656 31.1166C42.299 31.1155 42.2335 31.0995 42.174 31.0698L41.7944 30.8709C34.8185 27.1734 28.224 24.3121 21.4571 24.3194Z" fill="black"/>
</svg>
