<svg width="20" height="20" viewBox="0 0 20 20" fill="none" xmlns="http://www.w3.org/2000/svg">
<path fill-rule="evenodd" clip-rule="evenodd" d="M10 2.34842e-05C4.47701 2.34842e-05 7.77399e-06 4.47702 7.77399e-06 10C-0.00183217 11.4735 0.322957 12.9291 0.951008 14.262L0.0210077 18.799C-0.0121033 18.961 -0.00453014 19.1287 0.0430492 19.287C0.0906286 19.4454 0.17673 19.5895 0.293645 19.7064C0.41056 19.8233 0.55464 19.9094 0.712989 19.957C0.871338 20.0046 1.03901 20.0121 1.20101 19.979L5.73801 19.049C7.03201 19.659 8.47801 19.999 10 19.999C15.523 19.999 20 15.523 20 9.99902C20 4.47702 15.523 -0.000976562 10 -0.000976562" fill="#888888"/>
</svg>
