<svg width="18" height="20" viewBox="0 0 18 20" fill="none" xmlns="http://www.w3.org/2000/svg">
<path d="M16.5075 12.49C17.1618 11.262 17.5027 9.89143 17.5 8.5C17.5 3.8055 13.6945 0 9 0C4.3055 0 0.499998 3.8055 0.499998 8.5C0.49647 10.5052 1.20527 12.4464 2.5 13.9775L2.51 13.99L2.519 14H2.5L7.544 19.355C7.73098 19.5535 7.95657 19.7116 8.20692 19.8197C8.45726 19.9278 8.72706 19.9836 8.99975 19.9836C9.27243 19.9836 9.54224 19.9278 9.79258 19.8197C10.0429 19.7116 10.2685 19.5535 10.4555 19.355L15.5 14H15.481L15.489 13.9905L15.49 13.9895C15.526 13.9465 15.5618 13.9032 15.5975 13.8595C15.9444 13.4333 16.2492 12.975 16.5075 12.49ZM9.0025 11.7495C8.20685 11.7495 7.44379 11.4334 6.88118 10.8708C6.31857 10.3082 6.0025 9.54515 6.0025 8.7495C6.0025 7.95385 6.31857 7.19079 6.88118 6.62818C7.44379 6.06557 8.20685 5.7495 9.0025 5.7495C9.79815 5.7495 10.5612 6.06557 11.1238 6.62818C11.6864 7.19079 12.0025 7.95385 12.0025 8.7495C12.0025 9.54515 11.6864 10.3082 11.1238 10.8708C10.5612 11.4334 9.79815 11.7495 9.0025 11.7495Z" fill="#888888"/>
</svg>
