<svg width="67" height="56" viewBox="0 0 67 56" fill="none" xmlns="http://www.w3.org/2000/svg">
<path d="M24.6685 0C27.8445 0 30.891 1.25907 33.1403 3.50129L62.6537 32.9213C64.9123 35.1728 66.1818 38.2308 66.1818 41.42V47.4707C66.1818 52.1813 62.3631 56 57.6526 56C52.942 56 49.1233 52.1813 49.1233 47.4707V44.9935C49.1233 44.0184 48.7352 43.0835 48.0446 42.3951L23.7159 18.1432C22.9844 17.414 21.9937 17.0045 20.9609 17.0045C18.8057 17.0045 17.0585 18.7517 17.0585 20.9069V47.4707C17.0585 52.1813 13.2398 56 8.52926 56C3.81868 56 0 52.1813 0 47.4707V12C0 5.37258 5.37258 0 12 0H24.6685Z" fill="#1C1C1C"/>
<path d="M57.5781 17.3333C52.8265 17.3333 48.9745 13.4183 48.9745 8.66667C48.9745 3.91501 52.8265 0 57.5781 0C62.3298 0 66.1818 3.91501 66.1818 8.66667C66.1818 13.4183 62.3298 17.3333 57.5781 17.3333Z" fill="#FBDA14"/>
</svg>
