<svg width="213" height="148" viewBox="0 0 213 148" fill="none" xmlns="http://www.w3.org/2000/svg">
<path d="M7.98 143H1.68V114.86H8.4L18.48 128.174L22.344 134.096H22.806L22.512 128.426V114.86H28.812V143H22.092L11.718 129.56L8.148 124.268H7.728L7.98 129.434V143ZM43.3686 143.42C36.1866 143.42 31.3566 139.136 31.3566 132.5C31.3566 125.78 36.1866 121.538 43.3686 121.538C50.5506 121.538 55.3806 125.78 55.3806 132.5C55.3806 139.136 50.5506 143.42 43.3686 143.42ZM43.3686 137.834C47.6106 137.834 49.1226 136.196 49.1226 132.5C49.1226 128.804 47.6106 127.082 43.3686 127.082C39.0846 127.082 37.6146 128.804 37.6146 132.5C37.6146 136.196 39.0846 137.834 43.3686 137.834ZM64.2534 143H57.9534V121.958H63.7914V127.544H64.1694C64.7574 124.142 66.9834 121.538 71.2254 121.538C75.9294 121.538 77.8614 124.772 77.8614 128.888V132.374H71.5614V130.19C71.5614 127.88 70.6374 126.872 68.0754 126.872C65.2614 126.872 64.2534 128.174 64.2534 130.82V143ZM94.9689 143H89.7609C84.8469 143 81.8649 140.69 81.8649 135.398V127.166H78.5469V121.958H81.8649V117.884H88.1649V121.958H94.9689V127.166H88.1649V134.684C88.1649 136.784 88.9629 137.33 91.1889 137.33H94.9689V143ZM103.628 143H97.3284V114.86H103.628V128.384H103.964C104.636 124.814 107.114 121.538 112.49 121.538C118.16 121.538 120.932 125.234 120.932 130.106V143H114.632V131.996C114.632 128.468 113.12 127.208 109.172 127.208C104.93 127.208 103.628 128.93 103.628 132.458V143ZM136.88 143.42C128.354 143.42 123.566 140.06 123.566 133.508V133.256H129.866V134.012C129.866 136.616 131.168 137.666 136.88 137.666C141.92 137.666 143.096 136.91 143.096 135.02C143.096 133.298 142.13 132.668 139.232 132.164L131.336 131.03C126.296 130.232 123.314 127.712 123.314 123.134C123.314 118.892 126.758 114.44 136.208 114.44C144.86 114.44 148.892 118.43 148.892 124.352V124.604H142.55V124.016C142.55 121.328 141.164 120.194 135.578 120.194C131.042 120.194 129.656 121.076 129.656 122.882C129.656 124.52 130.58 125.108 132.932 125.528L140.828 126.788C147.128 127.796 149.396 130.862 149.396 134.726C149.396 139.304 145.826 143.42 136.88 143.42ZM158.261 119.816H151.961V114.86H158.261V119.816ZM158.261 143H151.961V121.958H158.261V143ZM170.967 143.42C164.415 143.42 160.803 139.136 160.803 132.5C160.803 125.78 164.373 121.538 170.631 121.538C175.629 121.538 178.191 124.016 178.905 127.544H179.283V114.86H185.583V143H179.703V137.162H179.367C178.569 141.32 175.797 143.42 170.967 143.42ZM167.187 132.5C167.187 136.322 169.077 137.666 173.109 137.666C177.099 137.666 179.283 136.28 179.283 132.626V132.29C179.283 128.636 177.141 127.292 173.109 127.292C169.077 127.292 167.187 128.636 167.187 132.5ZM200.088 143.42C193.074 143.42 188.286 139.976 188.286 132.5C188.286 125.78 193.032 121.538 199.962 121.538C206.85 121.538 211.428 125.15 211.428 131.744C211.428 132.5 211.344 133.046 211.26 133.76H194.124C194.292 136.994 195.804 138.38 199.878 138.38C203.616 138.38 204.918 137.414 204.918 135.608V135.188H211.218V135.65C211.218 140.228 206.766 143.42 200.088 143.42ZM199.836 126.452C196.098 126.452 194.502 127.712 194.208 130.442H205.38C205.212 127.67 203.532 126.452 199.836 126.452Z" fill="#FBDA14"/>
<path d="M47.8478 0C48.3772 0 48.8849 0.209845 49.2598 0.583548L108.139 59.2768C108.516 59.652 108.727 60.1617 108.727 60.6932V90C108.727 91.1046 107.832 92 106.727 92H82.7026C81.598 92 80.7026 91.1046 80.7026 90V72.2459C80.7026 71.7144 80.491 71.2047 80.1146 70.8295L37.6708 28.5196C37.2959 28.1459 36.7881 27.936 36.2588 27.936H30.0247C28.9201 27.936 28.0247 28.8314 28.0247 29.936V90C28.0247 91.1046 27.1293 92 26.0247 92H2C0.89543 92 0 91.1046 0 90V2C0 0.89543 0.895431 0 2 0H47.8478Z" fill="#1C1C1C"/>
<path d="M82.4581 28.4762C81.3536 28.4762 80.4581 27.5808 80.4581 26.4762V2C80.4581 0.895431 81.3536 0 82.4581 0H106.727C107.832 0 108.727 0.895431 108.727 2V26.4762C108.727 27.5808 107.832 28.4762 106.727 28.4762H82.4581Z" fill="#FBDA14"/>
</svg>
