<svg width="106" height="72" viewBox="0 0 106 72" fill="none" xmlns="http://www.w3.org/2000/svg">
<g opacity="0.5">
<path fill-rule="evenodd" clip-rule="evenodd" d="M59.2713 4.25271C58.9721 4.56162 57.9194 6.13889 57.9194 8.09291C57.9194 8.56073 57.9278 19.7623 57.9194 20.164C57.9031 21.0164 57.3774 22.2305 56.9442 22.6585C56.6389 22.9608 54.7637 24.65 54.5972 24.8274L55.6608 24.844C56.0068 24.5161 59.6192 21.3443 59.9971 20.9176C60.4886 20.364 61.6603 18.9617 61.6603 16.7595L61.6663 5.16098C61.6663 3.42063 62.4853 2.45523 62.9065 1.98919C63.3397 1.51066 64.7631 0.334554 65.0155 0.0685024L63.8997 0.0357666C63.6299 0.303009 59.6426 3.86762 59.2713 4.25271ZM50.3276 48.1465L54.7511 51.9742H57.7133C60.7248 51.9742 63.4779 50.6975 65.2942 48.8988C67.1118 47.0978 67.7812 44.6795 67.7812 42.4171V36.1426C67.7812 34.0338 66.4431 32.8071 66.0724 32.4393C65.8693 32.2393 64.581 31.0358 64.581 31.0358V35.8498C64.581 35.8498 66.0009 37.302 66.2815 37.5967C67.5937 38.9775 67.5793 41.4916 63.425 45.5032C62.6974 46.205 60.6214 48.1465 57.7649 48.1465H50.3276Z" fill="black"/>
<path fill-rule="evenodd" clip-rule="evenodd" d="M62.6312 22.3944C62.1385 22.9111 61.6657 24.1747 61.6657 25.2883V27.6643H64.0985C65.0431 27.6643 66.2916 26.8114 66.562 26.3602C66.5783 26.3269 66.562 24.0039 66.562 24.0039C66.562 24.0039 67.1863 24.8895 67.8611 25.3573C68.1146 25.0401 70.3288 22.3802 72.183 22.3653C75.2786 22.3403 74.5792 26.2096 73.3144 27.4476C72.9047 27.8458 71.0762 29.5076 70.5108 30.0403C69.0484 31.4194 66.5452 30.7593 66.5452 27.1959C66.5452 27.1959 63.8588 29.7225 63.4562 30.057C63.0512 30.3915 61.6657 31.8455 61.6657 31.8455V38.1058C61.6657 41.1079 60.6683 42.115 59.8421 43.0179C59.5206 43.3685 56.1078 46.4528 55.6511 46.7873L54.5365 46.8123C54.5365 46.8123 56.5338 45.0136 56.934 44.6017C57.3894 44.1333 57.92 43.1822 57.92 41.599C57.92 41.1978 57.8695 31.7616 57.8695 31.7616H42.3446C36.9447 31.7616 35.7905 25.8251 35.7568 24.2372C35.7484 23.7693 35.7568 19.028 35.7568 18.2924C35.7568 17.3168 35.1265 15.6705 34.1201 15.1628H35.6433C35.8187 15.2361 36.7759 15.6182 36.7759 19.2578C36.7759 19.2578 36.711 23.4932 36.711 23.7188C36.711 25.5639 38.1921 27.681 40.3323 27.681L57.9043 27.6643C57.9206 27.1959 58.3922 25.4204 59.2364 24.4818C59.7165 23.9527 63.4845 20.5368 63.9153 20.2083L65.0311 20.1958C64.861 20.3494 63.0386 21.9689 62.6312 22.3944ZM68.4007 25.9597C68.4007 25.9597 69.4179 27.2971 69.9028 27.6816C71.7955 29.1856 72.6938 27.5703 71.4235 25.8424C70.9212 25.1615 68.9745 25.3579 68.4007 25.9597Z" fill="black"/>
<path fill-rule="evenodd" clip-rule="evenodd" d="M49.5596 37.174C49.5596 38.0144 46.8492 40.2452 46.6906 40.4024C46.4947 39.4971 45.8109 38.4971 43.7908 36.4949L46.7567 33.557C48.7437 35.5283 49.5596 35.9479 49.5596 37.174ZM54.703 3.49795C55.2978 4.0872 56.5782 5.68589 55.8097 6.44833C55.1314 7.1209 54.0787 8.18749 54.0787 8.18749C54.0258 7.80299 53.0404 6.87747 53.0404 6.87747C53.0404 6.87747 53.0488 9.71475 53.0404 10.0659C53.0067 11.3468 52.5201 11.7122 52.5201 11.7122C52.5201 11.7122 54.9096 14.0609 54.9096 17.0779C54.9096 18.5409 54.9157 19.8866 54.9157 20.1771C54.9157 20.7955 54.7582 21.274 54.3232 21.7484C54.1087 21.9841 51.8934 24.1887 51.5563 24.4893C50.9146 25.0618 50.2398 25.1577 49.7339 25.1577H41.4968C40.1995 25.1577 38.8644 24.1548 38.8644 23.1519C38.8644 22.9013 38.8813 20.1259 38.8813 20.1259C39.3037 20.611 39.7333 21.1776 40.7716 21.1627C41.5821 21.1502 42.4341 20.5193 42.6618 20.2937C42.898 20.0574 48.8927 13.8496 48.8927 13.8496C48.8927 13.8496 46.0849 11.2712 44.2355 10.0463C43.333 9.44692 42.1343 10.2034 41.9534 10.9909C41.3862 13.4603 41.9534 17.1648 41.9534 17.1648L39.6792 14.9173C38.7641 14.0085 38.7971 11.9527 39.8883 10.8718C40.0613 10.6998 41.7233 8.83863 43.8347 8.83863H47.1232C49.3295 8.83863 51.7425 11.0158 51.7425 11.0158C51.7425 11.0158 52.0971 10.6314 52.0971 10.2594C52.0971 9.1392 52.055 6.118 52.055 6.118C50.3948 4.47407 50.1689 2.77717 50.9644 1.98914C52.4498 0.518413 52.9893 0 52.9893 0C52.9893 0 52.9713 1.78439 54.703 3.49795ZM44.3689 19.892C43.5571 20.7342 43.4159 20.9449 42.6564 21.396H51.933C54.447 21.396 53.9471 19.8497 53.4964 19.0706C52.5717 17.4719 49.6528 14.5013 49.6528 14.5013C49.6528 14.5013 44.5377 19.714 44.3689 19.892Z" fill="black"/>
<path fill-rule="evenodd" clip-rule="evenodd" d="M33.7908 28.2562H32.2682C32.2682 28.2562 33.9044 29.1466 33.9044 31.4429V38.7769C33.9044 43.5497 37.8784 47.9625 42.7069 47.9625H46.7398C49.1613 47.9625 50.0109 47.3816 51.4745 46.0948C52.0111 45.6222 52.7087 44.8467 52.9641 44.5651C53.8083 43.6295 54.7059 42.873 54.7059 40.4154V38.015C54.7059 35.9402 53.4934 35.0766 52.907 34.4962C52.5315 34.1242 51.4998 33.1475 51.4998 33.1475V38.0644C51.4998 38.0644 52.5164 39.137 52.9641 39.4857C55.058 41.1237 53.3913 43.9676 51.4493 43.9676C51.0612 43.9676 43.1323 43.9699 42.5921 43.9836C39.3307 44.064 34.9222 41.1821 34.9222 36.3366V32.3518C34.9228 28.2562 33.7908 28.2562 33.7908 28.2562Z" fill="black"/>
<path fill-rule="evenodd" clip-rule="evenodd" d="M43.4976 37.1871C43.4976 38.0245 40.7872 40.2583 40.6298 40.4154C40.4357 39.5101 39.7501 38.5102 37.7288 36.5079L40.6946 33.5701C42.6841 35.5402 43.4976 35.958 43.4976 37.1871ZM12.4882 69.8037C12.0051 69.8037 8.27737 69.7977 7.74441 69.7977C6.24828 69.7977 6.36244 68.5675 6.23146 67.5158V60.7728C6.23146 60.7728 7.26973 60.7478 8.44621 60.7478C9.76087 60.7478 11.3976 60.5556 12.9899 61.4483C12.9899 61.4483 11.8446 58.7128 8.43779 58.7128H6.23146V56.5523C6.23146 56.5523 6.23146 54.6697 5.7676 54.1138C5.7676 54.1138 8.70157 54.1245 8.90165 54.1245C11.6145 54.1263 13.7115 54.0852 15.892 55.5244C15.892 55.5244 15.4744 51.9681 10.2349 51.9681H0C0 51.9681 1.77673 53.4745 1.72746 56.5416L1.77673 68.8288C1.77673 71.9131 3.0229 71.9982 3.0229 71.9982H13.11C15.3963 71.9982 16.1918 70.3786 16.1918 69.5013L16.2261 68.3234C16.2261 68.3222 15.5002 69.8037 12.4882 69.8037ZM39.3403 68.7651V60.1711C39.3403 56.8362 36.5896 55.95 34.5413 55.95C31.829 55.95 31.0173 58.1944 30.6712 58.9652C30.0661 56.8731 27.9523 55.9256 26.2183 55.9256C22.9424 55.9256 22.1114 59.0152 22.1114 59.0152C22.1114 59.0152 22.0339 56.0315 19.4034 56.0315L16.8257 56.0374C16.8257 56.0374 18.3188 56.6457 18.3188 59.2241L18.3146 68.7669C18.3146 71.9178 19.5975 71.9726 19.5975 71.9726H23.8455C23.7355 71.9178 22.2148 70.7816 22.2148 68.7401V60.2752C22.267 59.8991 22.9088 58.6206 24.7414 58.6206C25.7796 58.6206 26.9207 59.6925 26.8948 60.8978L26.8912 68.7627C26.8912 71.9595 28.1566 71.9684 28.1566 71.9684H32.4215C32.4215 71.9684 30.7908 70.8316 30.7908 68.7359L30.7781 60.2687C30.938 59.7967 31.4992 58.6468 33.1089 58.6468C34.3911 58.6468 35.4648 59.7187 35.4396 60.9246C35.4396 60.9246 35.4312 68.1038 35.4354 68.7704C35.4546 71.988 36.7014 71.9589 36.7014 71.9589C38.9221 71.9589 40.9662 71.9678 40.9662 71.9678C40.9662 71.9678 39.3403 70.8548 39.3403 68.7651ZM46.7927 68.7615C46.7927 70.8798 48.4294 71.969 48.4294 71.969C48.4294 71.969 46.401 71.9601 44.1814 71.9601C44.1814 71.9601 42.8781 71.9791 42.8781 68.7859V68.7716L42.8824 59.2021C42.8824 56.6785 41.4061 56.0303 41.4061 56.0303H43.9837C44.8928 56.0303 46.7849 56.0303 46.7849 59.5991L46.7783 68.7466L46.7927 68.7615ZM59.8817 57.2326C59.8817 57.2326 59.4719 56.0857 57.7072 56.0857C55.0388 56.0857 54.3887 59.2265 54.3887 59.2265C54.1718 56.7439 53.5 56.0101 51.617 56.0101L49.0393 56.0166C49.0393 56.0166 50.533 56.6231 50.533 59.2015L50.5282 68.7567C50.5282 71.9101 51.8104 71.9619 51.8104 71.9619H56.0585C55.9491 71.9101 54.4284 70.7733 54.4284 68.7311L54.4332 60.9079C54.5449 60.1984 54.9145 59.6526 55.4751 59.2932C56.875 58.395 58.787 58.6081 59.8817 59.9324V57.2326ZM79.7063 57.8099C81.1453 57.8099 82.2191 58.4325 82.2191 58.4325L82.2317 56.0279H78.6584L78.6608 52.3818C78.6608 52.3818 77.7223 53.9906 75.8007 55.5536C74.5942 56.535 72.0604 57.7474 72.0604 57.7474L74.7583 57.7956L74.7534 68.8847C74.7534 71.9601 76.0513 71.9601 76.0513 71.9601C78.382 71.9601 80.2945 71.969 80.2945 71.969C80.2945 71.969 78.6542 70.8798 78.6542 68.8573L78.6578 57.804C79.7778 57.8075 79.0069 57.8099 79.7063 57.8099ZM92.6247 62.6245C90.2411 65.0939 88.3706 64.707 86.8721 66.5164C86.8721 66.5188 87.1124 68.9698 89.0057 69.8346C89.6522 70.1316 92.2762 71.0697 93.9766 68.1633L93.9646 70.7352C93.9646 70.7352 92.8734 71.9904 89.4101 71.9904C85.2359 71.9904 82.3771 68.7395 82.3771 64.3303C82.3771 59.9949 84.7078 55.9702 89.1085 55.9476C93.4214 55.9256 95.7569 59.3777 92.6247 62.6245ZM90.0157 61.6126C90.7211 60.3216 91.2763 57.0427 88.8657 57.2225C86.0729 57.4302 86.6041 64.7868 86.6041 64.7868C87.5384 63.7815 88.9396 63.5768 90.0157 61.6126ZM44.8183 54.7405C45.9131 54.7405 46.8011 53.8799 46.8011 52.8186C46.8011 51.7574 45.9131 50.8962 44.8183 50.8962C43.7235 50.8962 42.8355 51.7574 42.8355 52.8186C42.8355 53.8799 43.7235 54.7405 44.8183 54.7405ZM64.3082 70.1608C63.339 70.1608 62.6462 69.1621 62.6462 68.1383C62.6462 64.1601 65.9347 63.6107 66.8138 62.5489L66.821 69.2567C66.4322 69.5983 66.0381 70.1608 64.3082 70.1608ZM66.8138 61.0133C65.8254 62.7286 58.1368 63.0923 59.3157 68.9829C59.7814 71.319 61.3532 72 63.3294 72C65.2491 72 66.4028 71.0072 66.8865 70.0834C67.1731 71.8571 68.0774 71.9595 68.0774 71.9595C70.2987 71.9595 72.3266 71.9684 72.3266 71.9684C72.3266 71.9684 70.6719 70.8792 70.6719 68.7776V59.8223C70.6719 57.6802 68.2744 56.013 65.7256 56.013C63.2765 56.013 61.7366 57.1814 61.7366 57.1814V59.9604C61.7366 59.9604 62.6108 57.7587 64.8267 57.7587C66.9898 57.7587 67.149 58.8259 67.1364 59.3586C67.1364 59.3586 67.3551 60.0794 66.8138 61.0133ZM102.03 67.6408C102.054 68.7675 101.037 70.2471 98.8723 70.2471C96.6564 70.2471 95.7719 68.0008 95.7719 68.0008V70.8471C95.7719 70.8471 97.3702 71.9755 99.8193 71.9755C102.726 71.9755 105.665 69.787 105.599 66.7408C105.578 65.6689 105.192 64.7558 104.601 63.9684C103.618 62.6625 101.827 61.7495 100.441 60.9049C99.6504 60.4222 99.2298 59.5598 99.2208 59.2563C99.1974 58.723 99.4582 57.6457 101.623 57.6457C103.734 57.6457 104.633 59.8473 104.633 59.8473L104.625 57.1814C104.625 57.1814 103.009 55.9107 100.56 55.9107C98.0107 55.9107 95.6974 57.5784 95.7407 59.7193C95.7803 61.6001 96.5807 62.8185 98.1333 63.966C98.7468 64.419 99.4792 64.86 100.326 65.326C101.564 66.0052 102.014 66.8366 102.03 67.6408Z" fill="black"/>
</g>
</svg>
