<svg width="72" height="72" viewBox="0 0 72 72" fill="none" xmlns="http://www.w3.org/2000/svg">
<rect width="72" height="72" rx="14" fill="#FEFDE8"/>
<path d="M54.1907 50.1456C54.6861 50.1461 55.1627 50.3342 55.523 50.6714C55.8833 51.0086 56.1001 51.4695 56.1291 51.9598C56.1581 52.4502 55.9972 52.9331 55.6792 53.3097C55.3612 53.6864 54.9101 53.9285 54.4181 53.9865L54.1907 54H19.2C18.7046 53.9995 18.228 53.8114 17.8677 53.4742C17.5075 53.137 17.2906 52.6761 17.2616 52.1857C17.2326 51.6954 17.3935 51.2125 17.7115 50.8358C18.0295 50.4592 18.4806 50.2171 18.9726 50.1591L19.2 50.1456H54.1907ZM28.7836 19.6513L41.5416 29.9811L50.4311 28.3334C51.5016 28.1351 52.6067 28.2381 53.6212 28.6304C54.6358 29.0228 55.5192 29.689 56.1715 30.5535L56.4864 30.9756C56.8363 31.4709 57.1007 31.9854 56.9627 32.6484C56.7519 33.6699 56.2584 34.6131 55.5374 35.3721C54.8164 36.1312 53.8963 36.6762 52.8805 36.9461L23.4922 44.7494C22.9157 44.9023 22.3058 44.8763 21.7447 44.6747C21.1836 44.473 20.6985 44.1056 20.3547 43.622L15.1761 36.3332C15.0864 36.2063 15.0288 36.0599 15.0084 35.9063C14.9879 35.7526 15.0051 35.5964 15.0585 35.4507C15.1119 35.3051 15.2 35.1744 15.3152 35.0697C15.4304 34.965 15.5694 34.8894 15.7204 34.8493L18.8754 34.009C19.3392 33.8856 19.8266 33.8777 20.2943 33.9859C20.7619 34.0942 21.1953 34.3153 21.5561 34.6296L23.0062 35.8938L23.0257 35.8977L31.1902 32.737C31.1931 32.736 31.1958 32.7342 31.1979 32.7318C31.2 32.7295 31.2015 32.7267 31.2022 32.7237C31.203 32.7206 31.203 32.7174 31.2023 32.7144C31.2015 32.7114 31.2 32.7086 31.1979 32.7062L22.0129 21.6151C21.9099 21.4905 21.84 21.3424 21.8096 21.1841C21.7792 21.0259 21.7893 20.8626 21.839 20.7093C21.8887 20.5559 21.9764 20.4173 22.094 20.3062C22.2117 20.1952 22.3556 20.1151 22.5125 20.0733L26.1865 19.0981C26.6326 18.9799 27.1007 18.9683 27.5523 19.0645C28.0038 19.1606 28.4258 19.3618 28.7836 19.6513Z" fill="#FBDA14"/>
</svg>
